<svg width="38" height="39" viewBox="0 0 38 39" fill="none" xmlns="http://www.w3.org/2000/svg">
<path d="M3.70546 12.1297C2.41627 14.8155 1.90647 17.7439 2.10682 20.6907C2.60194 27.9521 7.85518 34.2146 15.028 36.2052C17.147 36.7934 19.4505 37.0135 21.6586 36.7811C26.4304 36.2786 30.3986 34.2686 33.5613 30.751C33.8067 30.4769 34.0155 30.3056 34.1864 30.2373C35.0393 29.8928 35.8889 30.7673 35.5281 31.5838C35.4001 31.8753 35.0686 32.1862 34.8379 32.4329C29.9727 37.6119 22.845 39.946 15.7665 38.4344C7.31496 36.6303 0.967642 29.8031 0.0739194 21.4307C-0.0141941 20.6081 0.00049146 19.6643 0.00154043 18.7724C0.00154043 18.3738 0.018324 18.0191 0.0487441 17.7082C1.0117 8.06069 8.92933 0.563839 18.9344 0.0144429C19.3456 -0.00900067 19.9697 -0.00390423 20.8068 0.0297322C22.6362 0.102102 24.6345 0.443563 26.2804 1.00315C31.0395 2.6228 34.7036 5.53388 37.2725 9.73742C37.5096 10.1258 37.5515 10.4968 37.3994 10.8515C37.1771 11.3703 36.3914 11.5344 35.9057 11.2348C35.5679 11.0278 35.226 10.3724 34.9847 10.0055C32.1084 5.62256 27.3891 2.77467 22.0813 2.14068C14.3452 1.2172 6.96985 5.32697 3.70546 12.1297Z" fill="#5653FC"/>
<path d="M10.056 11.3445C7.80173 13.9315 6.7601 17.1687 7.05486 20.5579C7.53634 26.0957 11.7836 30.6906 17.3568 31.7558C18.0156 31.8821 18.7729 31.9188 19.4852 31.9882C19.7254 32.0116 20.0663 32.0024 20.359 31.9718C20.8908 31.9158 21.4656 31.8944 21.9544 31.8118C24.9839 31.2961 27.515 29.9312 29.5469 27.7163C29.8605 27.3749 30.0756 27.1741 30.192 27.1149C30.9116 26.7511 31.8001 27.3443 31.8892 28.0741C31.9322 28.4186 31.82 28.7336 31.5536 29.02C31.1088 29.497 30.6431 29.9537 30.1553 30.3889C24.9702 35.0144 17.2991 35.5811 11.4574 31.8291C5.51917 28.014 3.04465 20.6007 5.62616 14.117C7.65697 9.01546 12.4476 5.33991 17.9904 4.68145C18.8946 4.57443 19.9362 4.56118 21.1163 4.6417C21.5831 4.6733 22.0342 4.75994 22.4989 4.8425C26.9717 5.63755 30.7647 8.21736 33.0966 12.0234C33.3085 12.3679 33.4281 12.688 33.3085 13.0855C33.0903 13.8102 32.1368 14.1608 31.4948 13.7205C31.3469 13.6196 31.1665 13.3964 30.9525 13.0529C28.8693 9.69635 25.4916 7.51813 21.4845 7.00849C20.8845 6.93204 20.188 6.95548 19.5345 6.95243C15.8715 6.93306 12.3983 8.65667 10.056 11.3445Z" fill="#49A1F8"/>
<path d="M13.117 16.3397C12.923 16.8433 12.8013 17.2897 12.7499 17.6801C12.6848 18.1785 12.5946 18.7045 12.5831 19.1785C12.5086 22.5258 14.2866 25.8599 17.8468 26.71C20.1651 27.2634 22.7413 26.7477 24.6966 25.2799C25.1151 24.966 25.584 24.2932 26.0571 24.1679C26.8281 23.962 27.7921 24.8793 27.4795 25.6214C27.3893 25.8364 27.2099 26.08 26.9404 26.3512C25.9365 27.3613 24.7019 28.0891 23.2354 28.5365C21.6284 29.0268 19.6238 29.198 17.8856 28.879C15.0587 28.3612 12.9544 26.9199 11.5708 24.5562C10.2219 22.2496 9.98689 19.102 10.6645 16.5711C11.4806 13.5184 13.8114 11.1944 16.8639 10.2291C18.5329 9.70113 20.7514 9.68278 22.5546 10.2679C26.4316 11.5277 28.6208 14.9291 28.4666 18.8635C28.4351 19.6789 28.1079 20.0224 27.2813 20.0245C20.9256 20.0367 16.9028 20.0377 15.2129 20.0285C13.7842 20.0204 13.7265 17.9054 15.3178 17.9054C18.3524 17.9054 21.3882 17.9054 24.4228 17.9054C25.1445 17.9064 25.754 17.8483 25.925 17.1348C25.9722 16.935 25.9512 16.6904 25.862 16.4009C25.2117 14.3063 23.5228 12.761 21.3619 12.1749C20.7095 11.9986 19.8325 11.9089 19.1559 11.9925C18.7447 12.0435 18.3115 12.0679 17.9286 12.1647C15.6692 12.7396 13.93 14.2156 13.117 16.3387V16.3397Z" fill="#41D3F3"/>
</svg>
